<?xml version="1.0" standalone="no"?>
<!DOCTYPE svg PUBLIC "-//W3C//DTD SVG 20010904//EN"
 "http://www.w3.org/TR/2001/REC-SVG-20010904/DTD/svg10.dtd">
<svg version="1.0" xmlns="http://www.w3.org/2000/svg"
 width="163.000000pt" height="163.000000pt" viewBox="0 0 163.000000 163.000000"
 preserveAspectRatio="xMidYMid meet">
<metadata>
Created by potrace 1.11, written by Peter Selinger 2001-2013
</metadata>
<g transform="translate(0.000000,163.000000) scale(0.100000,-0.100000)"
fill="#000000" stroke="none">
<path d="M777 1544 c-1 -1 -24 -4 -52 -7 -84 -9 -117 -18 -192 -48 -236 -98
-408 -317 -442 -560 -12 -88 -6 -215 14 -289 19 -71 83 -220 96 -220 4 0 10
-8 13 -18 10 -30 132 -150 194 -190 50 -32 95 -54 167 -82 61 -24 124 -33 242
-35 86 -2 133 1 133 7 0 6 9 8 20 5 11 -3 20 -1 20 4 0 4 7 5 17 2 11 -5 14
-3 8 6 -5 10 -2 11 13 7 11 -4 23 -2 27 4 3 5 15 10 26 10 11 0 19 7 20 18 0
10 3 12 6 5 7 -18 43 3 43 25 0 15 2 15 10 2 9 -13 13 -11 31 10 11 14 18 19
14 13 -3 -7 -1 -13 4 -13 6 0 11 7 11 16 0 8 5 12 10 9 9 -6 14 8 11 28 -1 5
3 6 9 2 6 -3 8 -11 5 -16 -4 -5 -2 -9 3 -9 10 0 25 37 23 53 -1 5 3 6 9 2 8
-5 7 -12 -2 -23 -12 -15 -11 -16 4 -3 10 7 15 17 12 22 -3 5 0 9 6 9 6 0 8 5
4 12 -5 8 -2 9 9 5 10 -3 17 -2 17 4 0 6 6 7 13 3 9 -6 9 -4 -1 8 -10 13 -9
16 8 21 14 4 18 10 13 23 -4 12 -3 15 5 10 7 -4 13 -2 13 3 1 6 3 16 4 21 1 6
3 13 4 18 1 4 6 0 11 -8 8 -13 10 -12 11 5 1 11 1 23 0 28 0 4 4 7 9 7 6 0 15
12 20 26 6 14 15 22 21 18 8 -4 8 0 0 15 -10 17 -8 23 9 33 11 7 20 16 20 21
0 4 -5 5 -11 2 -6 -4 -1 11 10 34 15 29 18 41 9 41 -8 0 -6 5 5 11 13 8 15 14
7 29 -7 12 -6 20 1 22 5 2 11 27 12 56 1 28 6 52 11 52 5 0 4 6 -2 13 -6 7 -7
18 -3 26 9 14 3 51 -9 51 -4 0 -6 14 -5 30 1 17 -2 30 -6 30 -4 0 -5 9 -2 20
3 13 0 20 -8 20 -11 0 -11 2 1 10 11 7 11 10 2 10 -7 0 -11 4 -8 9 3 5 -1 11
-9 15 -9 3 -12 12 -8 22 4 11 -1 22 -12 30 -11 8 -13 14 -6 14 9 0 8 5 -3 16
-9 8 -16 21 -16 29 0 7 -8 16 -17 19 -15 6 -15 8 -3 16 9 6 10 10 3 10 -6 0
-15 9 -18 20 -3 11 -12 20 -20 20 -8 0 -11 7 -8 18 2 11 -4 25 -14 33 -17 13
-17 13 -3 -6 14 -19 14 -19 -2 -6 -10 7 -18 19 -18 26 0 7 -7 16 -16 19 -8 3
-12 10 -9 16 3 6 -1 7 -9 4 -19 -7 -21 7 -3 26 10 12 9 12 -6 1 -9 -8 -19 -12
-21 -10 -2 2 -9 13 -15 24 -9 14 -11 15 -7 3 3 -12 1 -15 -10 -11 -8 3 -13 11
-10 19 3 8 -2 11 -15 9 -18 -4 -19 -2 -8 11 7 8 8 14 3 13 -19 -4 -73 14 -68
22 3 5 -2 9 -10 9 -8 0 -22 7 -30 16 -12 12 -16 12 -16 2 -1 -7 -8 -2 -16 12
-10 16 -13 18 -9 6 5 -18 5 -19 -12 -4 -28 25 -126 49 -209 52 -41 1 -76 1
-77 0z"/>
</g>
</svg>
